<?xml version='1.0' encoding='ascii'?>
<svg xmlns="http://www.w3.org/2000/svg" version="1.1" width="128" height="128">
    <g id="ViewLayer_LineSet" xmlns:inkscape="http://www.inkscape.org/namespaces/inkscape" inkscape:groupmode="lineset" inkscape:label="ViewLayer_LineSet">
        <g xmlns:inkscape="http://www.inkscape.org/namespaces/inkscape" inkscape:groupmode="layer" id="strokes" inkscape:label="strokes">
            <path class="circle" fill="fill" stroke-width="3.0" stroke-linecap="butt" stroke-opacity="1.0" stroke="rgb(0, 0, 0)" stroke-linejoin="miter" d=" M 52.587, 10.758 53.342, 10.692 54.096, 10.626 54.851, 10.562 55.606, 10.500 56.361, 10.440 57.115, 10.384 57.869, 10.332 58.624, 10.284 59.378, 10.241 60.132, 10.204 60.885, 10.174 61.639, 10.151 62.392, 10.135 63.145, 10.129 63.898, 10.131 64.650, 10.143 65.402, 10.165 66.154, 10.197 66.905, 10.240 67.655, 10.293 68.405, 10.357 69.153, 10.431 69.900, 10.515 70.646, 10.609 71.391, 10.714 72.133, 10.829 72.875, 10.953 73.614, 11.089 74.351, 11.234 75.086, 11.389 75.819, 11.555 76.550, 11.730 77.278, 11.916 78.003, 12.112 78.726, 12.317 79.445, 12.533 80.162, 12.758 80.875, 12.994 81.585, 13.239 82.291, 13.494 82.994, 13.758 83.693, 14.032 84.388, 14.316 85.079, 14.609 85.766, 14.911 86.449, 15.223 87.127, 15.545 87.801, 15.875 88.470, 16.215 89.135, 16.564 89.794, 16.923 90.448, 17.290 91.098, 17.666 91.742, 18.051 92.380, 18.445 93.014, 18.848 93.641, 19.259 94.263, 19.679 94.879, 20.108 95.489, 20.545 96.093, 20.990 96.691, 21.443 97.282, 21.905 97.867, 22.375 98.446, 22.853 99.018, 23.338 99.583, 23.832 100.141, 24.333 100.692, 24.842 101.236, 25.359 101.773, 25.883 102.303, 26.414 102.826, 26.953 103.341, 27.499 103.848, 28.051 104.348, 28.611 104.840, 29.177 105.324, 29.751 105.801, 30.331 106.269, 30.917 106.729, 31.510 107.181, 32.109 107.624, 32.714 108.060, 33.326 108.486, 33.943 108.905, 34.566 109.314, 35.195 109.716, 35.830 110.108, 36.470 110.491, 37.115 110.866, 37.766 111.232, 38.422 111.588, 39.083 111.936, 39.748 112.274, 40.419 112.603, 41.094 112.923, 41.773 113.233, 42.457 113.534, 43.146 113.825, 43.838 114.107, 44.535 114.379, 45.235 114.641, 45.939 114.893, 46.646 115.136, 47.357 115.369, 48.072 115.591, 48.789 115.804, 49.510 116.006, 50.234 116.199, 50.960 116.381, 51.689 116.552, 52.421 116.714, 53.155 116.865, 53.891 117.005, 54.630 117.135, 55.370 117.254, 56.112 117.363, 56.856 117.461, 57.601 117.548, 58.348 117.625, 59.095 117.690, 59.844 117.745, 60.593 117.788, 61.343 117.821, 62.094 117.842, 62.845 117.853, 63.596 117.852, 64.348 117.840, 65.099 117.817, 65.850 117.782, 66.600 117.737, 67.350 117.681, 68.100 117.614, 68.848 117.536, 69.596 117.447, 70.342 117.348, 71.087 117.238, 71.830 117.117, 72.572 116.986, 73.312 116.845, 74.050 116.694, 74.787 116.532, 75.521 116.360, 76.252 116.178, 76.981 115.986, 77.708 115.784, 78.431 115.572, 79.152 115.350, 79.870 115.118, 80.584 114.877, 81.296 114.626, 82.004 114.365, 82.708 114.094, 83.408 113.814, 84.105 113.524, 84.798 113.225, 85.486 112.917, 86.171 112.599, 86.851 112.271, 87.527 111.935, 88.198 111.589, 88.864 111.234, 89.525 110.870, 90.182 110.497, 90.833 110.115, 91.479 109.724, 92.120 109.325, 92.755 108.917, 93.385 108.500, 94.009 108.074, 94.627 107.641, 95.239 107.198, 95.846 106.748, 96.446 106.289, 97.039 105.823, 97.627 105.348, 98.208 104.865, 98.782 104.374, 99.350 103.875, 99.910 103.369, 100.464 102.856, 101.011 102.334, 101.551 101.806, 102.083 101.270, 102.608 100.727, 103.126 100.177, 103.636 99.620, 104.139 99.056, 104.634 98.485, 105.121 97.907, 105.600 97.323, 106.072 96.733, 106.535 96.136, 106.990 95.533, 107.436 94.924, 107.875 94.308, 108.305 93.687, 108.726 93.060, 109.139 92.428, 109.543 91.789, 109.939 91.146, 110.326 90.497, 110.704 89.843, 111.073 89.184, 111.433 88.519, 111.784 87.850, 112.125 87.177, 112.458 86.498, 112.781 85.815, 113.095 85.128, 113.399 84.437, 113.694 83.741, 113.980 83.041, 114.256 82.338, 114.522 81.631, 114.778 80.920, 115.025 80.206, 115.262 79.488, 115.489 78.768, 115.706 78.044, 115.914 77.317, 116.111 76.588, 116.298 75.855, 116.475 75.121, 116.642 74.383, 116.798 73.644, 116.945 72.902, 117.080 72.159, 117.205 71.414, 117.320 70.667, 117.424 69.918, 117.517 69.168, 117.599 68.417, 117.670 67.665, 117.731 66.913, 117.780 66.159, 117.817 65.405, 117.844 64.650, 117.859 63.895, 117.863 63.140, 117.855 62.385, 117.835 61.631, 117.804 60.876, 117.762 60.122, 117.709 59.369, 117.644 58.617, 117.568 57.865, 117.482 57.115, 117.384 56.366, 117.275 55.618, 117.156 54.872, 117.026 54.128, 116.886 53.385, 116.734 52.645, 116.573 51.906, 116.401 51.170, 116.218 50.437, 116.026 49.706, 115.823 48.978, 115.610 48.253, 115.387 47.531, 115.154 46.812, 114.911 46.097, 114.658 45.385, 114.395 44.676, 114.122 43.972, 113.839 43.271, 113.547 42.574, 113.244 41.881, 112.932 41.193, 112.610 40.509, 112.279 39.830, 111.938 39.155, 111.588 38.485, 111.228 37.820, 110.859 37.161, 110.480 36.506, 110.092 35.857, 109.696 35.213, 109.290 34.575, 108.875 33.942, 108.451 33.316, 108.019 32.695, 107.577 32.081, 107.127 31.472, 106.669 30.871, 106.201 30.275, 105.726 29.686, 105.242 29.104, 104.750 28.529, 104.249 27.961, 103.741 27.399, 103.225 26.845, 102.700 26.298, 102.168 25.759, 101.629 25.227, 101.081 24.703, 100.527 24.186, 99.965 23.677, 99.395 23.176, 98.819 22.683, 98.236 22.198, 97.645 21.721, 97.048 21.253, 96.444 20.793, 95.833 20.342, 95.216 19.899, 94.593 19.465, 93.963 19.039, 93.328 18.623, 92.686 18.215, 92.038 17.816, 91.385 17.427, 90.726 17.046, 90.062 16.675, 89.392 16.313, 88.717 15.961, 88.037 15.618, 87.352 15.285, 86.662 14.961, 85.967 14.647, 85.268 14.343, 84.564 14.049, 83.856 13.765, 83.143 13.491, 82.427 13.228, 81.707 12.975, 80.983 12.732, 80.255 12.500, 79.524 12.279, 78.790 12.069, 78.052 11.869, 77.312 11.681, 76.568 11.504, 75.822 11.338, 75.073 11.183, 74.321 11.040, 73.567 10.909, 72.811 10.788, 72.053 10.679, 71.294 10.581, 70.532 10.495, 69.769 10.420, 69.005 10.356, 68.240 10.304, 67.474 10.263, 66.707 10.233, 65.940 10.215, 65.172 10.208, 64.404 10.212, 63.636 10.227, 62.868 10.254, 62.100 10.291, 61.333 10.340, 60.566 10.399, 59.801 10.469, 59.036 10.549, 58.273 10.640, 57.512 10.740, 56.752 10.851, 55.994 10.971, 55.238 11.100, 54.484 11.239, 53.733 11.388, 52.985 11.545, 52.239 11.711, 51.497 11.885, 50.758 12.069, 50.022 12.260, 49.290 12.458, 48.561 12.664, 47.834 12.875, 47.111 13.093, 46.389 13.316, 45.670 13.544, 44.953 13.775, 44.238 14.011, 43.524 14.250, 42.811 14.491, 42.100 14.735, 41.389 14.980, 40.679 15.226, 39.969 15.473, 39.260 15.362, 39.186 15.356, 39.181 15.238, 39.102 15.170, 39.057 15.121, 39.024 15.003, 38.945 14.963, 38.918 14.885, 38.866 14.771, 38.789 14.768, 38.787 14.650, 38.708 14.600, 38.675 14.533, 38.629 14.454, 38.577 14.415, 38.551 14.298, 38.472 14.180, 38.393 14.062, 38.314 13.945, 38.235 13.827, 38.156 13.710, 38.078 13.592, 37.999 13.475, 37.920 13.357, 37.841 13.240, 37.762 13.122, 37.683 13.004, 37.605 12.887, 37.526 12.769, 37.447 12.652, 37.368 12.534, 37.289 12.417, 37.210 12.299, 37.132 12.182, 37.053 12.064, 36.974 11.946, 36.895 11.829, 36.816 11.711, 36.737 11.594, 36.659 11.476, 36.580 11.359, 36.501 11.241, 36.422 11.124, 36.343 11.006, 36.264 10.888, 36.186 10.834, 36.149 10.771, 36.107 10.653, 36.028 10.536, 35.949 10.418, 35.870 10.301, 35.791 10.183, 35.713 10.065, 35.634 9.948, 35.555 9.830, 35.476 9.713, 35.397 9.595, 35.318 9.478, 35.240 9.360, 35.161 9.243, 35.082 9.125, 35.003 9.007, 34.924 8.890, 34.845 8.772, 34.767 8.655, 34.688 8.537, 34.609 8.420, 34.530 8.302, 34.451 8.185, 34.372 8.067, 34.294 7.975, 34.232 7.949, 34.216 7.949, 34.217 7.624, 35.099 7.300, 35.984 6.977, 36.868 6.657, 37.753 6.339, 38.638 6.026, 39.523 5.717, 40.408 5.413, 41.294 5.116, 42.180 4.825, 43.066 4.542, 43.952 4.268, 44.839 4.003, 45.726 3.748, 46.614 3.503, 47.502 3.270, 48.391 3.050, 49.280 2.841, 50.170 2.645, 51.061 2.462, 51.951 2.291, 52.843 2.132, 53.735 1.986, 54.627 1.853, 55.520 1.733, 56.413 1.625, 57.307 1.530, 58.201 1.448, 59.095 1.378, 59.990 1.322, 60.885 1.279, 61.781 1.249, 62.677 1.232, 63.573 1.227, 64.470 1.237, 65.366 1.259, 66.262 1.294, 67.158 1.342, 68.053 1.404, 68.947 1.479, 69.840 1.567, 70.732 1.668, 71.622 1.782, 72.511 1.909, 73.397 2.049, 74.282 2.203, 75.164 2.370, 76.044 2.550, 76.921 2.743, 77.796 2.949, 78.667 3.168, 79.535 3.400, 80.400 3.645, 81.261 3.902, 82.118 4.172, 82.972 4.454, 83.821 4.749, 84.666 5.055, 85.507 5.374, 86.343 5.704, 87.175 6.047, 88.002 6.400, 88.824 6.766, 89.640 7.143, 90.451 7.531, 91.257 7.930, 92.057 8.341, 92.851 8.763, 93.640 9.195, 94.422 9.638, 95.198 10.092, 95.967 10.557, 96.730 11.032, 97.486 11.518, 98.235 12.014, 98.978 12.520, 99.713 13.037, 100.441 13.563, 101.161 14.100, 101.874 14.646, 102.580 15.202, 103.277 15.768, 103.966 16.343, 104.648 16.928, 105.321 17.522, 105.985 18.125, 106.641 18.737, 107.289 19.358, 107.928 19.987, 108.558 20.626, 109.179 21.272, 109.791 21.927, 110.394 22.591, 110.987 23.262, 111.571 23.942, 112.146 24.629, 112.711 25.324, 113.266 26.027, 113.811 26.737, 114.346 27.455, 114.871 28.179, 115.386 28.911, 115.891 29.649, 116.385 30.394, 116.869 31.146, 117.343 31.904, 117.805 32.668, 118.258 33.438, 118.699 34.215, 119.129 34.997, 119.549 35.784, 119.958 36.578, 120.355 37.376, 120.741 38.180, 121.116 38.989, 121.480 39.802, 121.832 40.621, 122.173 41.443, 122.502 42.271, 122.820 43.102, 123.126 43.937, 123.421 44.777, 123.704 45.620, 123.975 46.466, 124.234 47.316, 124.482 48.169, 124.717 49.025, 124.941 49.884, 125.153 50.746, 125.352 51.610, 125.540 52.477, 125.715 53.346, 125.878 54.217, 126.029 55.089, 126.167 55.964, 126.293 56.840, 126.406 57.717, 126.506 58.595, 126.593 59.474, 126.668 60.354, 126.730 61.235, 126.779 62.115, 126.814 62.997, 126.836 63.878, 126.846 64.759, 126.841 65.639, 126.824 66.520, 126.793 67.399, 126.750 68.278, 126.693 69.156, 126.623 70.032, 126.541 70.907, 126.446 71.781, 126.338 72.652, 126.217 73.522, 126.085 74.390, 125.940 75.256, 125.782 76.119, 125.613 76.979, 125.431 77.837, 125.237 78.692, 125.032 79.543, 124.814 80.392, 124.585 81.237, 124.344 82.078, 124.091 82.916, 123.827 83.750, 123.551 84.579, 123.264 85.405, 122.966 86.226, 122.656 87.043, 122.334 87.855, 122.002 88.662, 121.658 89.465, 121.304 90.262, 120.938 91.054, 120.561 91.841, 120.174 92.622, 119.776 93.398, 119.367 94.167, 118.947 94.931, 118.517 95.689, 118.076 96.440, 117.625 97.185, 117.164 97.924, 116.692 98.656, 116.210 99.381, 115.719 100.100, 115.217 100.811, 114.706 101.515, 114.185 102.212, 113.654 102.902, 113.113 103.584, 112.564 104.258, 112.004 104.924, 111.436 105.583, 110.858 106.233, 110.272 106.875, 109.676 107.509, 109.072 108.135, 108.459 108.752, 107.837 109.361, 107.207 109.960, 106.569 110.551, 105.922 111.133, 105.268 111.706, 104.605 112.269, 103.935 112.824, 103.257 113.368, 102.571 113.904, 101.877 114.429, 101.177 114.945, 100.469 115.451, 99.754 115.948, 99.032 116.434, 98.304 116.910, 97.569 117.376, 96.827 117.832, 96.079 118.277, 95.324 118.712, 94.564 119.137, 93.797 119.551, 93.025 119.954, 92.247 120.346, 91.464 120.728, 90.675 121.098, 89.881 121.458, 89.082 121.807, 88.278 122.144, 87.469 122.470, 86.656 122.785, 85.838 123.089, 85.015 123.382, 84.189 123.663, 83.359 123.932, 82.524 124.191, 81.687 124.437, 80.845 124.672, 80.000 124.895, 79.152 125.107, 78.301 125.307, 77.447 125.494, 76.590 125.670, 75.731 125.834, 74.869 125.986, 74.005 126.126, 73.140 126.253, 72.272 126.368, 71.402 126.471, 70.531 126.561, 69.659 126.638, 68.785 126.703, 67.911 126.756, 67.035 126.795, 66.160 126.822, 65.283 126.836, 64.406 126.836, 63.530 126.824, 62.653 126.799, 61.776 126.761, 60.900 126.710, 60.025 126.647, 59.150 126.571, 58.276 126.482, 57.404 126.381, 56.532 126.267, 55.663 126.141, 54.795 126.002, 53.928 125.852, 53.064 125.688, 52.203 125.513, 51.343 125.325, 50.486 125.126, 49.632 124.914, 48.781 124.691, 47.933 124.455, 47.088 124.208, 46.247 123.949, 45.409 123.678, 44.575 123.396, 43.745 123.102, 42.919 122.797, 42.097 122.480, 41.279 122.152, 40.466 121.813, 39.658 121.462, 38.854 121.101, 38.056 120.729, 37.262 120.345, 36.474 119.951, 35.691 119.546, 34.914 119.130, 34.142 118.704, 33.376 118.268, 32.617 117.820, 31.863 117.363, 31.116 116.895, 30.375 116.418, 29.640 115.930, 28.913 115.432, 28.192 114.924, 27.478 114.407, 26.771 113.879, 26.071 113.343, 25.379 112.796, 24.694 112.241, 24.017 111.676, 23.348 111.101, 22.687 110.518, 22.033 109.926, 21.388 109.325, 20.751 108.715, 20.122 108.097, 19.502 107.470, 18.890 106.835, 18.287 106.191, 17.693 105.540, 17.107 104.880, 16.531 104.213, 15.964 103.537, 15.406 102.854, 14.858 102.164, 14.319 101.466, 13.790 100.761, 13.270 100.049, 12.761 99.330, 12.261 98.604, 11.771 97.871, 11.291 97.132, 10.821 96.386, 10.361 95.634, 9.912 94.876, 9.473 94.112, 9.045 93.342, 8.627 92.566, 8.220 91.785, 7.823 90.998, 7.438 90.206, 7.063 89.409, 6.699 88.607, 6.347 87.800, 6.005 86.988, 5.675 86.172, 5.355 85.352, 5.047 84.527, 4.751 83.698, 4.465 82.866, 4.191 82.029, 3.929 81.189, 3.678 80.346, 3.439 79.499, 3.211 78.649, 2.995 77.797, 2.791 76.941, 2.599 76.084, 2.418 75.225, 2.250 74.364, 2.092 73.503, 1.947 72.641, 1.813 71.779, 1.691 70.917, 1.581 70.056, 1.482 69.197, 1.395 68.338, 1.319 67.482, 1.255 66.628, 1.203 65.777, 1.162 64.929, 1.133 64.085, 1.115 63.244, 1.108 62.406, 1.111 61.571, 1.124 60.739, 1.145 59.909, 1.174 59.082, 1.210 58.256, 1.253 57.433, 1.302 56.611, 1.355 55.790, 1.413 54.970, 1.475 54.152, 1.539 53.334, 1.606 52.516, 1.674 51.699, 1.743 51.713, 1.883 51.727, 2.024 51.741, 2.165 51.754, 2.306 51.768, 2.447 51.782, 2.588 51.796, 2.729 51.810, 2.869 51.824, 3.010 51.838, 3.151 51.852, 3.292 51.865, 3.433 51.879, 3.574 51.893, 3.715 51.907, 3.855 51.921, 3.996 51.935, 4.137 51.949, 4.278 51.963, 4.419 51.976, 4.560 51.990, 4.701 52.004, 4.842 52.018, 4.982 52.032, 5.123 52.046, 5.264 52.060, 5.405 52.074, 5.546 52.087, 5.687 52.101, 5.828 52.115, 5.968 52.129, 6.109 52.143, 6.250 52.157, 6.391 52.171, 6.532 52.185, 6.673 52.198, 6.814 52.212, 6.954 52.226, 7.095 52.240, 7.236 52.254, 7.377 52.268, 7.518 52.282, 7.659 52.296, 7.800 52.309, 7.941 52.323, 8.081 52.337, 8.222 52.351, 8.363 52.365, 8.504 52.379, 8.645 52.393, 8.786 52.407, 8.927 52.420, 9.067 52.434, 9.208 52.448, 9.349 52.462, 9.490 52.476, 9.631 52.490, 9.772 52.504, 9.913 52.518, 10.053 52.531, 10.194 52.545, 10.335 52.559, 10.476 52.573, 10.617 52.587, 10.758 " />
            <path class="circle" fill="fill" stroke-width="3.0" stroke-linecap="butt" stroke-opacity="1.0" stroke="rgb(0, 0, 0)" stroke-linejoin="miter" d=" M 22.704, 44.109 22.951, 42.510 23.197, 40.911 23.444, 39.312 23.691, 37.712 23.938, 36.113 24.185, 34.514 24.431, 32.915 24.678, 31.316 24.925, 29.716 25.172, 28.117 25.418, 26.518 25.665, 24.919 25.912, 23.319 26.159, 21.720 26.406, 20.121 26.652, 18.522 25.031, 19.200 23.411, 19.877 21.790, 20.555 20.169, 21.233 18.548, 21.911 16.927, 22.588 15.306, 23.266 13.686, 23.944 12.065, 24.622 10.444, 25.299 8.823, 25.977 7.202, 26.655 5.581, 27.332 3.960, 28.010 2.340, 28.688 0.719, 29.366 2.093, 30.287 3.467, 31.209 4.841, 32.130 6.215, 33.052 7.589, 33.973 7.949, 34.215 7.975, 34.232 8.963, 34.894 10.337, 35.816 10.834, 36.149 11.711, 36.737 13.085, 37.659 14.454, 38.577 14.459, 38.580 14.600, 38.675 14.771, 38.789 14.963, 38.918 15.170, 39.057 15.362, 39.186 15.834, 39.502 17.208, 40.423 18.582, 41.345 19.956, 42.266 21.330, 43.188 22.704, 44.109 " />
            <path class="play" fill="fill" stroke-width="3.0" stroke-linecap="butt" stroke-opacity="1.0" stroke="rgb(0, 0, 0)" stroke-linejoin="miter" d=" M 50.149, 88.800 55.160, 85.809 63.747, 80.684 72.334, 75.560 72.840, 75.257 81.427, 70.133 81.680, 69.981 90.267, 64.857 91.703, 64.000 83.116, 58.875 81.680, 58.019 73.093, 52.894 72.840, 52.743 64.253, 47.618 55.666, 42.493 55.160, 42.191 50.149, 39.200 50.149, 49.200 50.149, 59.200 50.149, 69.200 50.149, 79.200 50.149, 88.800 " />
            <path class="pause" fill="fill" stroke-width="3.0" stroke-linecap="butt" stroke-opacity="1.0" stroke="rgb(0, 0, 0)" stroke-linejoin="miter" d=" M 72.840, 76.400 72.840, 86.400 72.840, 88.800 81.680, 88.800 81.680, 78.800 81.680, 76.400 81.680, 69.981 81.680, 64.000 81.680, 58.019 81.680, 51.600 81.680, 41.600 81.680, 39.200 72.840, 39.200 72.840, 49.200 72.840, 51.600 72.840, 52.743 72.840, 62.743 72.840, 64.000 72.840, 74.000 72.840, 75.257 72.840, 76.400 " />
            <path class="pause" fill="fill" stroke-width="3.0" stroke-linecap="butt" stroke-opacity="1.0" stroke="rgb(0, 0, 0)" stroke-linejoin="miter" d=" M 46.320, 64.000 46.320, 74.000 46.320, 76.400 46.320, 86.400 46.320, 88.800 55.160, 88.800 55.160, 85.809 55.160, 76.400 55.160, 66.400 55.160, 64.000 55.160, 54.000 55.160, 51.600 55.160, 42.191 55.160, 39.200 46.320, 39.200 46.320, 49.200 46.320, 51.600 46.320, 61.600 46.320, 64.000 " />
        </g>
    </g>
</svg>
